<svg width="25" height="25" viewBox="0 0 25 25" fill="none" xmlns="http://www.w3.org/2000/svg">
<path fill-rule="evenodd" clip-rule="evenodd" d="M17.8947 17.47C7.4622 17.47 6.79029 17.7762 5.79043 17.0355C3.69473 15.4825 6.14238 12.2607 8.23808 13.9224C6.18238 7.17001 16.5619 4.88932 17.8997 11.4992C21.8422 11.3586 22.1541 17.47 17.8947 17.47ZM19.4455 9.73187C19.4455 9.73187 18.7426 7.92154 16.8869 6.6825C12.5645 3.79772 6.7263 6.48814 6.0664 11.5859C6.0614 11.6227 6.00741 11.6248 6.0374 11.6178C5.08554 11.8531 4.26765 12.4261 3.72173 13.2016C2.60689 14.7845 2.73387 17.0983 4.45163 18.4928C6.0434 19.7847 6.53133 19.4636 17.7707 19.4636C19.0885 19.4636 20.3354 18.9803 21.2802 18.1699C24.2798 15.5991 23.158 10.8563 19.4455 9.73187Z" fill="black"/>
</svg>
