<svg width="20" height="20" viewBox="0 0 20 20" fill="none" xmlns="http://www.w3.org/2000/svg">
<path d="M9.96875 2C11.4856 2 12.722 3.20108 12.7787 4.70409L12.7807 4.81195H16.3262C16.6638 4.81195 16.9375 5.08564 16.9375 5.42325C16.9375 5.73975 16.697 6.00008 16.3887 6.03138L16.3262 6.03454H15.7927L14.9598 17.072C14.8779 18.1561 13.9744 18.994 12.8873 18.994H7.05025C5.96305 18.994 5.05956 18.1561 4.97774 17.072L4.14434 6.03454H3.61129C3.29479 6.03454 3.03446 5.794 3.00316 5.48575L3 5.42325C3 5.10674 3.24054 4.84641 3.54879 4.81511L3.61129 4.81195H7.1568C7.1568 3.25895 8.41575 2 9.96875 2ZM14.5667 6.03454H5.37079L6.19686 16.98C6.23055 17.4264 6.60258 17.7714 7.05025 17.7714H12.8873C13.3349 17.7714 13.7069 17.4264 13.7406 16.98L14.5667 6.03454ZM11.5581 8.60197C11.8746 8.60197 12.1349 8.84252 12.1663 9.15077L12.1694 9.21327V14.5927C12.1694 14.9303 11.8957 15.2039 11.5581 15.2039C11.2416 15.2039 10.9813 14.9634 10.95 14.6552L10.9468 14.5927V9.21327C10.9468 8.87566 11.2205 8.60197 11.5581 8.60197ZM8.37939 8.60197C8.69589 8.60197 8.95622 8.84252 8.98752 9.15077L8.99068 9.21327V14.5927C8.99068 14.9303 8.71699 15.2039 8.37939 15.2039C8.06288 15.2039 7.80255 14.9634 7.77125 14.6552L7.76809 14.5927V9.21327C7.76809 8.87566 8.04178 8.60197 8.37939 8.60197ZM9.96875 3.22259C9.12124 3.22259 8.42866 3.88594 8.3819 4.72176L8.37939 4.81195H11.5581C11.5581 3.93417 10.8465 3.22259 9.96875 3.22259Z" fill="#212121"/>
</svg>
