<svg width="20" height="20" viewBox="0 0 20 20" fill="none" xmlns="http://www.w3.org/2000/svg">
<g clip-path="url(#clip0_27_2)">
<path d="M10.0675 6.2775C7.99687 6.2775 6.3175 7.95687 6.3175 10.0275C6.3175 12.0981 7.99687 13.7775 10.0675 13.7775C12.1381 13.7775 13.8175 12.0987 13.8175 10.0275C13.8175 7.95625 12.1387 6.2775 10.0675 6.2775ZM10.0675 12.5275C8.68875 12.5275 7.53875 11.3787 7.53875 10C7.53875 8.62125 8.66 7.5 10.0387 7.5C11.4175 7.5 12.5387 8.62125 12.5387 10C12.5387 11.3787 11.4462 12.5275 10.0675 12.5275ZM19.9937 9.855C19.9862 9.82375 19.99 9.79 19.9806 9.75937C19.9769 9.74625 19.9681 9.73875 19.9637 9.7275C19.9569 9.71 19.9587 9.68875 19.9494 9.67187C18.1313 5.50937 14.2137 3.11437 10.0387 3.11437C5.86375 3.11437 1.8675 5.50562 0.04875 9.66812C0.04125 9.68562 0.0425 9.70375 0.035625 9.72375C0.03125 9.73625 0.0225 9.7425 0.018125 9.75437C0.00875 9.78562 0.0125 9.81875 0.00625 9.85062C-0.005 9.90687 -0.015625 9.96187 -0.015625 10.0187C-0.015625 10.0756 -0.005 10.1294 0.00625 10.1862C0.0125 10.2175 0.008125 10.2519 0.018125 10.2812C0.021875 10.2956 0.03125 10.3012 0.035625 10.3137C0.041875 10.3306 0.040625 10.3519 0.04875 10.3694C1.8675 14.5306 5.825 16.8869 10 16.8869C14.175 16.8869 18.1319 14.5356 19.95 10.3731C19.9594 10.355 19.9575 10.3369 19.9644 10.3169C19.9688 10.3062 19.9769 10.2981 19.9806 10.2856C19.99 10.255 19.9875 10.2219 19.9937 10.1894C20.005 10.1331 20.015 10.0787 20.015 10.0206C20.015 9.96562 20.0044 9.91125 19.9931 9.85437L19.9937 9.855ZM10 15.6369C6.45937 15.6369 2.97375 13.7706 1.26125 10.0181C2.9575 6.27875 6.48938 4.36375 10.0387 4.36375C13.5875 4.36375 17.0406 6.28062 18.7375 10.0219C17.0419 13.7606 13.55 15.6369 10 15.6369Z" fill="#717171"/>
</g>
<defs>
<clipPath id="clip0_27_2">
<rect width="20" height="20" fill="white"/>
</clipPath>
</defs>
</svg>
