<svg width="70" height="70" viewBox="0 0 70 70" fill="none" xmlns="http://www.w3.org/2000/svg">
<path d="M57.9708 24.0625C57.9708 23.9163 57.9414 23.7715 57.8843 23.6369C57.8271 23.5023 57.7434 23.3805 57.6382 23.279L42.3358 7.97655C42.3327 7.97348 42.3289 7.97138 42.3257 7.96835C42.2782 7.92143 42.2264 7.87897 42.1711 7.84151C42.1526 7.82909 42.1319 7.82102 42.1128 7.80983C42.0712 7.78387 42.0279 7.76075 41.9831 7.74064C41.9588 7.73056 41.9328 7.72562 41.9078 7.71727C41.8657 7.70151 41.8226 7.68843 41.7789 7.67809C41.7076 7.66364 41.6351 7.65632 41.5624 7.65625H15.3103C14.4404 7.65725 13.6063 8.00327 12.9912 8.6184C12.3761 9.23354 12.03 10.0676 12.0291 10.9375V59.0625C12.03 59.9324 12.3761 60.7665 12.9912 61.3816C13.6063 61.9967 14.4404 62.3428 15.3103 62.3438H54.6874C55.5574 62.3428 56.3914 61.9967 57.0065 61.3816C57.6217 60.7665 57.9677 59.9324 57.9687 59.0625V24.0844C57.9688 24.0769 57.9708 24.07 57.9708 24.0625ZM42.6562 11.3905L54.2344 22.9688H42.6562V11.3905ZM54.6874 60.1562H15.3103C15.0203 60.1559 14.7423 60.0406 14.5373 59.8355C14.3322 59.6305 14.2169 59.3525 14.2166 59.0625V10.9375C14.2169 10.6475 14.3322 10.3695 14.5373 10.1645C14.7423 9.95942 15.0203 9.84408 15.3103 9.84375H40.4687V24.0625C40.4687 24.3526 40.5839 24.6308 40.7891 24.8359C40.9942 25.041 41.2724 25.1562 41.5624 25.1562H55.7812V59.0625C55.7809 59.3525 55.6655 59.6305 55.4605 59.8355C55.2554 60.0406 54.9774 60.1559 54.6874 60.1562ZM44.8437 37.1875C44.8437 37.4776 44.7284 37.7558 44.5233 37.9609C44.3182 38.166 44.04 38.2812 43.7499 38.2812H26.2499C25.9599 38.2812 25.6817 38.166 25.4765 37.9609C25.2714 37.7558 25.1562 37.4776 25.1562 37.1875C25.1562 36.8974 25.2714 36.6192 25.4765 36.4141C25.6817 36.209 25.9599 36.0938 26.2499 36.0938H43.7499C44.04 36.0938 44.3182 36.209 44.5233 36.4141C44.7284 36.6192 44.8437 36.8974 44.8437 37.1875ZM44.8437 45.9375C44.8437 46.2276 44.7284 46.5058 44.5233 46.7109C44.3182 46.916 44.04 47.0312 43.7499 47.0312H26.2499C25.9599 47.0312 25.6817 46.916 25.4765 46.7109C25.2714 46.5058 25.1562 46.2276 25.1562 45.9375C25.1562 45.6474 25.2714 45.3692 25.4765 45.1641C25.6817 44.959 25.9599 44.8438 26.2499 44.8438H43.7499C44.04 44.8438 44.3182 44.959 44.5233 45.1641C44.7284 45.3692 44.8437 45.6474 44.8437 45.9375Z" fill="black"/>
</svg>
