<svg width="25" height="23" viewBox="0 0 25 23" fill="none" xmlns="http://www.w3.org/2000/svg">
<path d="M16.6667 6.33333C16.0914 6.33333 15.625 6.79971 15.625 7.375C15.625 7.95029 16.0914 8.41667 16.6667 8.41667V6.33333ZM8.33333 8.41667C8.90863 8.41667 9.375 7.95029 9.375 7.375C9.375 6.79971 8.90863 6.33333 8.33333 6.33333V8.41667ZM11.4583 12.5833C11.4583 13.1586 11.9247 13.625 12.5 13.625C13.0753 13.625 13.5417 13.1586 13.5417 12.5833H11.4583ZM12.5 2.16667L13.2366 1.43009C12.8298 1.0233 12.1702 1.0233 11.7634 1.43009L12.5 2.16667ZM14.3676 5.50741C14.7744 5.9142 15.434 5.9142 15.8407 5.50741C16.2475 5.1006 16.2475 4.44106 15.8407 4.03426L14.3676 5.50741ZM9.15926 4.03426C8.75247 4.44106 8.75247 5.1006 9.15926 5.50741C9.56606 5.9142 10.2256 5.9142 10.6324 5.50741L9.15926 4.03426ZM19.7917 10.7292V15.4792H21.875V10.7292H19.7917ZM17.4792 17.7917H7.52083V19.875H17.4792V17.7917ZM5.20833 15.4792V10.7292H3.125V15.4792H5.20833ZM16.6667 8.41667H17.4792V6.33333H16.6667V8.41667ZM7.52083 8.41667H8.33333V6.33333H7.52083V8.41667ZM7.52083 17.7917C6.91013 17.7917 6.5158 17.7908 6.21586 17.7659C5.92839 17.7421 5.82213 17.7016 5.76982 17.6744L4.80946 19.5231C5.20869 19.7305 5.62481 19.8073 6.04344 19.8421C6.44961 19.8758 6.9451 19.875 7.52083 19.875V17.7917ZM3.125 15.4792C3.125 16.0549 3.12417 16.5504 3.1579 16.9566C3.19266 17.3752 3.26945 17.7914 3.47684 18.1905L5.32562 17.2302C5.29844 17.1779 5.25795 17.0717 5.23409 16.7842C5.20917 16.4842 5.20833 16.0899 5.20833 15.4792H3.125ZM5.76982 17.6744C5.57956 17.5755 5.42444 17.4204 5.32562 17.2302L3.47684 18.1905C3.77332 18.7614 4.2387 19.2267 4.80946 19.5231L5.76982 17.6744ZM19.7917 15.4792C19.7917 16.0899 19.7908 16.4842 19.7659 16.7842C19.7421 17.0717 19.7016 17.1779 19.6744 17.2302L21.5231 18.1905C21.7305 17.7914 21.8073 17.3752 21.8421 16.9566C21.8758 16.5504 21.875 16.0549 21.875 15.4792H19.7917ZM17.4792 19.875C18.0549 19.875 18.5504 19.8758 18.9566 19.8421C19.3752 19.8073 19.7914 19.7305 20.1905 19.5231L19.2302 17.6744C19.1779 17.7016 19.0717 17.7421 18.7842 17.7659C18.4842 17.7908 18.0899 17.7917 17.4792 17.7917V19.875ZM19.6744 17.2302C19.5755 17.4204 19.4204 17.5755 19.2302 17.6744L20.1905 19.5231C20.7614 19.2267 21.2267 18.7614 21.5231 18.1905L19.6744 17.2302ZM21.875 10.7292C21.875 10.1534 21.8758 9.65792 21.8421 9.25177C21.8073 8.83312 21.7305 8.41698 21.5231 8.01779L19.6744 8.97812C19.7016 9.03042 19.7421 9.13667 19.7659 9.42417C19.7908 9.72417 19.7917 10.1184 19.7917 10.7292H21.875ZM17.4792 8.41667C18.0899 8.41667 18.4842 8.4175 18.7842 8.4424C19.0717 8.46625 19.1779 8.50677 19.2302 8.53396L20.1905 6.68517C19.7914 6.47778 19.3752 6.40099 18.9566 6.36623C18.5504 6.3325 18.0549 6.33333 17.4792 6.33333V8.41667ZM21.5231 8.01779C21.2267 7.44703 20.7614 6.98166 20.1905 6.68517L19.2302 8.53396C19.4204 8.63281 19.5755 8.78792 19.6744 8.97812L21.5231 8.01779ZM5.20833 10.7292C5.20833 10.1184 5.20917 9.72417 5.23409 9.42417C5.25795 9.13667 5.29844 9.03042 5.32562 8.97812L3.47684 8.01779C3.26945 8.41698 3.19266 8.83312 3.1579 9.25177C3.12417 9.65792 3.125 10.1534 3.125 10.7292H5.20833ZM7.52083 6.33333C6.9451 6.33333 6.44961 6.3325 6.04344 6.36623C5.6248 6.40099 5.20869 6.47778 4.80946 6.68517L5.76982 8.53396C5.82213 8.50677 5.92839 8.46625 6.21586 8.4424C6.5158 8.4175 6.91013 8.41667 7.52083 8.41667V6.33333ZM5.32562 8.97812C5.42444 8.78792 5.57956 8.63281 5.76982 8.53396L4.80946 6.68517C4.2387 6.98166 3.77332 7.44703 3.47684 8.01779L5.32562 8.97812ZM13.5417 12.5833V2.16667H11.4583V12.5833H13.5417ZM11.7634 2.90324L14.3676 5.50741L15.8407 4.03426L13.2366 1.43009L11.7634 2.90324ZM11.7634 1.43009L9.15926 4.03426L10.6324 5.50741L13.2366 2.90324L11.7634 1.43009Z" fill="black"/>
</svg>
